<svg width="36" height="36" viewBox="0 0 24 24" fill="none" xmlns="http://www.w3.org/2000/svg">
  <defs>
    <linearGradient id="hauntGradient" x1="0%" y1="0%" x2="0%" y2="100%">
      <stop offset="0%" style="stop-color:#EC4899;stop-opacity:1" />
      <stop offset="100%" style="stop-color:#DB2777;stop-opacity:1" />
    </linearGradient>
  </defs>
  <!-- Pink background circle -->
  <circle cx="12" cy="12" r="11" fill="url(#hauntGradient)"/>
  <!-- White spiky ghost shape like haunt.gg logo -->
  <path d="M12 3C8 3 5 6 5 10V16L6.5 14.5L8 16L9.5 14.5L11 16L12 14.5L13 16L14.5 14.5L16 16L17.5 14.5L19 16V10C19 6 16 3 12 3Z" fill="white"/>
  <!-- Spiky top -->
  <path d="M8 3L9 5L10 3L11 5L12 3L13 5L14 3L15 5L16 3" stroke="white" stroke-width="2" fill="none"/>
  <!-- Evil eyes -->
  <path d="M9 9L10.5 10.5M10.5 9L9 10.5" stroke="#EC4899" stroke-width="1.5"/>
  <path d="M13.5 9L15 10.5M15 9L13.5 10.5" stroke="#EC4899" stroke-width="1.5"/>
  <!-- Menacing grin -->
  <path d="M8.5 13C9 14 10 14.5 12 14.5C14 14.5 15 14 15.5 13" stroke="#EC4899" stroke-width="1.5" fill="none"/>
  <rect x="9.5" y="13.5" width="1" height="2" fill="#EC4899"/>
  <rect x="11" y="13.5" width="1" height="2" fill="#EC4899"/>
  <rect x="12.5" y="13.5" width="1" height="2" fill="#EC4899"/>
  <rect x="14" y="13.5" width="1" height="2" fill="#EC4899"/>
</svg>